<svg xmlns="http://www.w3.org/2000/svg" width="23.5" height="23.881" viewBox="0 0 23.5 23.881">
  <g id="_003-birthday-cake" data-name="003-birthday-cake" transform="translate(-0.393)">
    <path id="Path_86" data-name="Path 86" d="M23.893,138.364v-3.525a1.96,1.96,0,0,0-1.958-1.958H20.368v-3.917a.392.392,0,0,0-.392-.392h-2.35a.392.392,0,0,0-.392.392v3.917H13.709v-4.7a.392.392,0,0,0-.392-.392h-2.35a.392.392,0,0,0-.392.392v4.7H7.051v-3.917a.392.392,0,0,0-.392-.392H4.309a.392.392,0,0,0-.392.392v3.917H2.351a1.961,1.961,0,0,0-1.958,1.958v3.525a2.272,2.272,0,0,0,1.175,2.026v4.241H.784a.392.392,0,1,0,0,.783H23.5a.392.392,0,1,0,0-.783h-.783V140.4A2.357,2.357,0,0,0,23.893,138.364Zm-5.875-9.008h1.567v3.525H18.018Zm-6.658-.783h1.567v4.308H11.359Zm-6.658.783H6.268v3.525H4.7Zm-3.525,5.483a1.175,1.175,0,0,1,1.175-1.175H21.934a1.175,1.175,0,0,1,1.175,1.175v3.525a1.576,1.576,0,0,1-.937,1.437,1.6,1.6,0,0,1-1.737-.326,1.573,1.573,0,0,1-.459-1.111V136.8a1.563,1.563,0,0,0-.867-1.394l-.024-.013a1.5,1.5,0,0,0-.194-.076c-.039-.013-.075-.026-.114-.035a1.507,1.507,0,0,0-.152-.027c-.034,0-.067-.015-.1-.018-.019,0-.037,0-.055,0s-.039-.006-.059-.006c-.043,0-.085.009-.128.012s-.089.006-.133.013a1.566,1.566,0,0,0-.2.051c-.035.011-.071.019-.106.032a1.5,1.5,0,0,0-.211.106c-.025.014-.051.024-.075.039a1.574,1.574,0,0,0-.254.2,1.556,1.556,0,0,0-.46,1.108v.783a1.567,1.567,0,1,1-3.133,0V136.8a1.563,1.563,0,0,0-.867-1.394l-.024-.013a1.5,1.5,0,0,0-.194-.076c-.039-.013-.075-.026-.114-.035a1.507,1.507,0,0,0-.152-.027c-.034,0-.067-.015-.1-.018-.019,0-.037,0-.055,0s-.039-.006-.059-.006c-.043,0-.085.009-.128.012s-.089.006-.133.013a1.569,1.569,0,0,0-.2.051c-.036.011-.072.019-.106.032a1.522,1.522,0,0,0-.21.105c-.025.014-.052.025-.076.039a1.559,1.559,0,0,0-.713,1.313v2.35a1.567,1.567,0,0,1-3.133,0V136.8a1.563,1.563,0,0,0-.867-1.394l-.024-.013a1.5,1.5,0,0,0-.194-.076c-.039-.013-.075-.026-.114-.035a1.507,1.507,0,0,0-.152-.027c-.034,0-.067-.015-.1-.018s-.075,0-.114,0A1.567,1.567,0,0,0,4.309,136.8v1.567a1.569,1.569,0,0,1-.456,1.108,1.616,1.616,0,0,1-1.464.415,1.562,1.562,0,0,1-.274-.085,1.612,1.612,0,0,1-.481-.327,1.573,1.573,0,0,1-.459-1.111Zm1.175,9.792v-3.949c.039.007.078.008.118.013l.03,0a2.359,2.359,0,0,0,1.015-.118,2.392,2.392,0,0,0,.29-.125l.06-.031a2.4,2.4,0,0,0,.221-.136c.023-.015.046-.03.068-.046a2.284,2.284,0,0,0,.94-1.878V136.8a.778.778,0,0,1,.23-.553.8.8,0,0,1,.129-.1l.025-.013a.775.775,0,0,1,.12-.06l.037-.011a.746.746,0,0,1,.117-.029c.019,0,.039,0,.058-.006a.851.851,0,0,1,.1,0,1.008,1.008,0,0,1,.161.024l.028.009a.856.856,0,0,1,.562.814v2.284a2.35,2.35,0,0,0,4.7,0V136.8a.781.781,0,0,1,.359-.657l.021-.011a.782.782,0,0,1,.125-.062l.033-.01a.83.83,0,0,1,.118-.031l.056-.006a.782.782,0,0,1,.1,0,1.008,1.008,0,0,1,.161.024l.028.009a.856.856,0,0,1,.566.814v.717a2.35,2.35,0,0,0,4.7,0V136.8a.778.778,0,0,1,.23-.553.8.8,0,0,1,.129-.1l.026-.014a.8.8,0,0,1,.12-.059c.012,0,.025-.007.039-.011a.728.728,0,0,1,.116-.029c.019,0,.039,0,.058-.006a.851.851,0,0,1,.1,0,1.008,1.008,0,0,1,.161.024l.028.009a.856.856,0,0,1,.562.814v1.5a2.352,2.352,0,0,0,.688,1.665,2.394,2.394,0,0,0,.248.211c.025.018.052.035.078.052.066.045.132.087.2.125l.083.043a2.394,2.394,0,0,0,.242.1l.049.019a2.381,2.381,0,0,0,.666.125h0a2.339,2.339,0,0,0,.327-.01l.039,0c.039,0,.078-.006.118-.012v3.949Zm0,0" transform="translate(0 -121.533)" fill="#5486e3"/>
    <path id="Path_87" data-name="Path 87" d="M202.357,5.473a1.961,1.961,0,0,0,1.958-1.958c0-.94-1.363-2.961-1.636-3.356a.407.407,0,0,0-.645,0c-.273.4-1.636,2.416-1.636,3.356A1.961,1.961,0,0,0,202.357,5.473Zm0-4.384a7.621,7.621,0,0,1,1.175,2.425,1.175,1.175,0,1,1-2.35,0A7.621,7.621,0,0,1,202.357,1.089Zm0,0" transform="translate(-190.214)" fill="#5486e3"/>
    <path id="Path_88" data-name="Path 88" d="M338.357,21.473a1.961,1.961,0,0,0,1.958-1.958c0-.94-1.363-2.961-1.636-3.356a.407.407,0,0,0-.645,0c-.273.4-1.636,2.416-1.636,3.356A1.961,1.961,0,0,0,338.357,21.473Zm0-4.384a7.621,7.621,0,0,1,1.175,2.425,1.175,1.175,0,0,1-2.35,0A7.622,7.622,0,0,1,338.357,17.089Zm0,0" transform="translate(-319.556 -15.217)" fill="#5486e3"/>
    <path id="Path_89" data-name="Path 89" d="M66.357,21.473a1.961,1.961,0,0,0,1.958-1.958c0-.94-1.363-2.961-1.636-3.356a.407.407,0,0,0-.645,0c-.273.4-1.636,2.416-1.636,3.356A1.961,1.961,0,0,0,66.357,21.473Zm0-4.384a7.621,7.621,0,0,1,1.175,2.425,1.175,1.175,0,1,1-2.35,0A7.621,7.621,0,0,1,66.357,17.089Zm0,0" transform="translate(-60.872 -15.217)" fill="#5486e3"/>
  </g>
</svg>
