<svg xmlns="http://www.w3.org/2000/svg" width="20.023" height="30" viewBox="0 0 20.023 30">
  <g id="employee" transform="translate(-78.305)">
    <g id="Group_71" data-name="Group 71" transform="translate(78.305 17.591)">
      <g id="Group_70" data-name="Group 70" transform="translate(0)">
        <path id="Path_102" data-name="Path 102" d="M97.907,353.471c-.233,0-.422.253-.422.564v2.054H79.151V347.7c0-.312-.189-.564-.422-.564s-.422.253-.422.564v10.527c0,.726.442,1.317.986,1.317H97.344c.544,0,.986-.591.986-1.317v-4.192C98.329,353.724,98.14,353.471,97.907,353.471Zm-.423,4.757c0,.1-.063.188-.141.188H79.292c-.078,0-.141-.084-.141-.188v-1.01H97.484v1.01Z" transform="translate(-78.306 -347.136)" fill="#00bc9f"/>
      </g>
    </g>
    <g id="Group_73" data-name="Group 73" transform="translate(78.305)">
      <g id="Group_72" data-name="Group 72" transform="translate(0)">
        <path id="Path_103" data-name="Path 103" d="M97.242,14.7H95.631a8.469,8.469,0,0,0-5.257-4.117,4,4,0,0,0,2.054-3.473v-3.1a3.925,3.925,0,0,0-.7-2.243A4.138,4.138,0,0,0,88.317,0,4.069,4.069,0,0,0,84.2,4.014v3.1a4,4,0,0,0,2.054,3.473A8.469,8.469,0,0,0,81,14.7H79.391a1.075,1.075,0,0,0-1.086,1.061v2.367a.423.423,0,0,0,.845,0V15.765a.239.239,0,0,1,.241-.236h17.85a.239.239,0,0,1,.241.236v7a.423.423,0,0,0,.845,0v-7A1.075,1.075,0,0,0,97.242,14.7ZM88.317.825a3.233,3.233,0,0,1,3.267,3.189v1.1a3.063,3.063,0,0,1-2.162-1.824.427.427,0,0,0-.767-.05,4.425,4.425,0,0,1-3.605,1.9V4.014h0A3.233,3.233,0,0,1,88.317.825ZM85.05,7.114V5.965a5.522,5.522,0,0,0,3.916-1.75A3.645,3.645,0,0,0,91.584,5.95V7.114A3.229,3.229,0,0,1,88.435,10.3l-.112,0h-.012l-.112,0A3.229,3.229,0,0,1,85.05,7.114ZM86.558,14.7h-4.59a7.645,7.645,0,0,1,4.256-3.249l.76,1.442Zm.867,0,.342-1.449h1.1l.342,1.449Zm1.52-2.274H87.688l-.623-1.182c.175-.033.351-.06.528-.08H87.6q.226-.025.454-.037l.046,0,.107,0,.11,0,.11,0,.107,0,.046,0q.228.011.454.037h.007c.177.02.353.047.528.08ZM90.076,14.7,89.649,12.9l.76-1.442A7.646,7.646,0,0,1,94.666,14.7Z" transform="translate(-78.305)" fill="#00bc9f"/>
      </g>
    </g>
    <g id="Group_75" data-name="Group 75" transform="translate(85.981 19.506)">
      <g id="Group_74" data-name="Group 74">
        <path id="Path_104" data-name="Path 104" d="M227.3,346.5a2.336,2.336,0,1,0,2.336,2.336A2.338,2.338,0,0,0,227.3,346.5Zm0,3.543a1.207,1.207,0,1,1,1.207-1.207A1.208,1.208,0,0,1,227.3,350.045Z" transform="translate(-224.968 -346.502)" fill="#00bc9f"/>
      </g>
    </g>
  </g>
</svg>
