<svg xmlns="http://www.w3.org/2000/svg" width="25.066" height="25.066" viewBox="0 0 25.066 25.066">
  <g id="Group_288" data-name="Group 288" transform="translate(-1110.704 -706.5)">
    <path id="Path_553" data-name="Path 553" d="M24.765,12.6A12.163,12.163,0,1,1,12.6.439,12.162,12.162,0,0,1,24.765,12.6" transform="translate(1110.635 706.431)" fill="#d3d3d3"/>
    <path id="Path_554" data-name="Path 554" d="M12.534,25.066A12.533,12.533,0,1,1,25.066,12.533,12.548,12.548,0,0,1,12.534,25.066m0-24.326A11.792,11.792,0,1,0,24.326,12.533,11.806,11.806,0,0,0,12.534.741" transform="translate(1110.704 706.5)" fill="#fff"/>
    <path id="Path_555" data-name="Path 555" d="M13.278,4.406l2.64,5.347,5.9.858-4.27,4.162,1.008,5.878-5.278-2.775L8,20.652l1.008-5.878-4.27-4.162,5.9-.858Z" transform="translate(1109.96 705.807)" fill="#fff"/>
  </g>
</svg>
